<svg xmlns="http://www.w3.org/2000/svg" viewBox="0 0 300 350" fill="none">
  <defs>
    <radialGradient id="visor" cx="0.35" cy="0.35" r="0.7">
      <stop offset="0%" stop-color="#FFD600" stop-opacity="0.9"/>
      <stop offset="40%" stop-color="#1a1a2e" stop-opacity="0.95"/>
      <stop offset="100%" stop-color="#000000"/>
    </radialGradient>
    <linearGradient id="suit" x1="0" y1="0" x2="1" y2="1">
      <stop offset="0%" stop-color="#f5f5f5"/>
      <stop offset="100%" stop-color="#c8c8c8"/>
    </linearGradient>
    <linearGradient id="suitShadow" x1="0" y1="0" x2="1" y2="1">
      <stop offset="0%" stop-color="#a0a0a0"/>
      <stop offset="100%" stop-color="#707070"/>
    </linearGradient>
  </defs>

  <g transform="rotate(-8 150 175)">
    <ellipse cx="150" cy="330" rx="80" ry="8" fill="#000" opacity="0.2"/>

    <path d="M 90 200 Q 70 210 65 240 Q 60 275 75 300 Q 90 320 105 315 L 110 260 Z" fill="url(#suit)"/>
    <path d="M 210 200 Q 230 210 235 240 Q 240 275 225 300 Q 210 320 195 315 L 190 260 Z" fill="url(#suitShadow)"/>

    <path d="M 100 190 Q 95 250 100 310 Q 105 330 130 335 L 170 335 Q 195 330 200 310 Q 205 250 200 190 Z" fill="url(#suit)"/>

    <ellipse cx="150" cy="255" rx="35" ry="30" fill="#FFD600" opacity="0.15"/>
    <rect x="130" y="240" width="40" height="30" rx="5" fill="#1a1a2e" stroke="#FFD600" stroke-width="1.5"/>
    <circle cx="140" cy="255" r="3" fill="#FFD600"/>
    <circle cx="150" cy="255" r="3" fill="#4CAF50"/>
    <circle cx="160" cy="255" r="3" fill="#f44336"/>

    <circle cx="150" cy="140" r="70" fill="url(#suit)"/>
    <circle cx="150" cy="140" r="70" fill="none" stroke="#a0a0a0" stroke-width="2"/>

    <ellipse cx="150" cy="140" rx="55" ry="55" fill="url(#visor)"/>
    <ellipse cx="150" cy="140" rx="55" ry="55" fill="none" stroke="#FFD600" stroke-width="2"/>

    <ellipse cx="130" cy="120" rx="15" ry="20" fill="#ffffff" opacity="0.25"/>
    <ellipse cx="170" cy="155" rx="8" ry="12" fill="#ffffff" opacity="0.15"/>

    <rect x="80" y="130" width="12" height="20" rx="3" fill="#FFD600"/>
    <rect x="208" y="130" width="12" height="20" rx="3" fill="#FFD600"/>
  </g>

  <circle cx="40" cy="60" r="1.5" fill="#FFD600" opacity="0.8"/>
  <circle cx="260" cy="80" r="1" fill="#ffffff" opacity="0.6"/>
  <circle cx="270" cy="200" r="1.5" fill="#FFD600" opacity="0.7"/>
  <circle cx="30" cy="220" r="1" fill="#ffffff" opacity="0.5"/>
  <circle cx="60" cy="290" r="1.2" fill="#FFD600" opacity="0.6"/>
</svg>
