<svg width="80" height="80" viewBox="0 0 80 80" fill="none" xmlns="http://www.w3.org/2000/svg">
    <path d="M65 5H15C9.47715 5 5 9.47715 5 15V65C5 70.5229 9.47715 75 15 75H65C70.5229 75 75 70.5229 75 65V15C75 9.47715 70.5229 5 65 5Z" fill="#1B3A5C"/>
    <rect x="14" y="50" width="10" height="18" rx="2" fill="#4DB5E6"/>
    <rect x="28" y="38" width="10" height="30" rx="2" fill="#47C5FB"/>
    <rect x="42" y="28" width="10" height="40" rx="2" fill="#00B4D8"/>
    <rect x="56" y="16" width="10" height="52" rx="2" fill="#0096C7"/>
    <path d="M14 48L28 36L42 26L56 14" stroke="#FFD43B" stroke-width="2.5" stroke-linecap="round" stroke-linejoin="round"/>
    <circle cx="14" cy="48" r="3" fill="#FFD43B"/>
    <circle cx="28" cy="36" r="3" fill="#FFD43B"/>
    <circle cx="42" cy="26" r="3" fill="#FFD43B"/>
    <circle cx="56" cy="14" r="3" fill="#FFD43B"/>
</svg>
