<svg width="80" height="80" viewBox="0 0 80 80" fill="none" xmlns="http://www.w3.org/2000/svg">
    <path d="M39.7 8c-16 0-15 7-15 7v7.3h15.3v2H18.6S8 23.2 8 39.6c0 16.4 9.3 15.8 9.3 15.8h5.5v-7.6s-.3-9.3 9.1-9.3h15.5s8.8.1 8.8-8.5V16s1.3-8-16.5-8zm-8.4 4.9a2.8 2.8 0 1 1 0 5.6 2.8 2.8 0 0 1 0-5.6z" fill="#3776AB"/>
    <path d="M40.3 72c16 0 15-7 15-7v-7.3H40v-2h21.4S72 56.8 72 40.4c0-16.4-9.3-15.8-9.3-15.8h-5.5v7.6s.3 9.3-9.1 9.3H32.6s-8.8-.1-8.8 8.5V64s-1.3 8 16.5 8zm8.4-4.9a2.8 2.8 0 1 1 0-5.6 2.8 2.8 0 0 1 0 5.6z" fill="#FFD43B"/>
</svg>
