<svg width="80" height="80" viewBox="0 0 80 80" fill="none" xmlns="http://www.w3.org/2000/svg">
    <!-- Gear shape -->
    <path d="M47 8l4 7.5a28 28 0 0 1 7.5 4.3l8-2 5.5 9.5-4.5 6.5a28 28 0 0 1 0 8.4l4.5 6.5-5.5 9.5-8-2a28 28 0 0 1-7.5 4.3L47 68h-11l-4-7.5a28 28 0 0 1-7.5-4.3l-8 2-5.5-9.5 4.5-6.5a28 28 0 0 1 0-8.4l-4.5-6.5 5.5-9.5 8 2a28 28 0 0 1 7.5-4.3L33 8h14z" fill="#0078D4"/>
    <!-- Inner circle (white/light) -->
    <circle cx="44" cy="40" r="15" fill="#FFFFFF"/>
    <!-- Pie chart slice -->
    <path d="M44 25a15 15 0 0 1 0 30V40h-15a15 15 0 0 1 15-15z" fill="#E8E8E8"/>
    <path d="M44 40V25a15 15 0 0 1 13 7.5z" fill="#C8C8C8"/>
    <!-- Blue rounded square with A -->
    <rect x="16" y="26" width="28" height="28" rx="5" fill="#0078D4"/>
    <rect x="16" y="26" width="28" height="28" rx="5" fill="url(#grad1)"/>
    <text x="30" y="47" text-anchor="middle" font-family="Arial, Helvetica, sans-serif" font-size="22" font-weight="bold" fill="#FFFFFF">A</text>
    <defs>
        <linearGradient id="grad1" x1="16" y1="26" x2="44" y2="54" gradientUnits="userSpaceOnUse">
            <stop offset="0" stop-color="#1490DF"/>
            <stop offset="1" stop-color="#0078D4"/>
        </linearGradient>
    </defs>
</svg>
